<svg width="164" height="34" viewBox="0 0 164 34" fill="none" xmlns="http://www.w3.org/2000/svg">
<g clip-path="url(#clip0_10_60)">
<path d="M15.9666 14.1934C17.902 13.2545 18.677 11.5495 18.677 9.11362C18.677 5.32074 16.4582 3.58286 10.3353 3.58286H1.1124C0.372819 3.58286 0.0561523 3.9988 0.0561523 4.62476C0.0561523 4.93775 0.162402 5.18278 0.443652 5.39075C1.56865 5.77375 1.92074 6.19175 1.92074 7.23571V21.8121C1.92074 22.8911 1.56865 23.3091 0.443652 23.6901C0.162402 23.8651 0.0561523 24.1431 0.0561523 24.456C0.0561523 25.082 0.372819 25.5 1.1124 25.5H11.7416C17.6916 25.5 20.2603 23.7251 20.2603 19.4812C20.2603 16.5944 18.7832 14.8544 15.9666 14.1934ZM9.73532 5.84376C12.9395 5.84376 14.277 6.95567 14.277 9.60163C14.277 12.2455 12.8687 13.3924 9.73532 13.3924H6.32073V5.84376H9.73532ZM6.32073 23.2391V15.6533H11.4603C14.3832 15.6533 15.8603 17.0103 15.8603 19.4812C15.8603 22.0551 14.4874 23.2391 11.4603 23.2391H6.32073Z" fill="#084A83"/>
<path d="M27.9686 25.5C28.6727 25.5 29.0248 25.082 29.0248 24.456C29.0248 24.143 28.8852 23.8651 28.6373 23.69C27.4769 23.3091 27.1248 22.8911 27.1248 21.7071V2.78185C27.1248 2.05087 26.7727 1.70288 26.0331 1.70288C25.8936 1.70288 25.7165 1.73789 25.5769 1.77289L21.7394 2.88687C21.3519 3.02483 21.0352 3.33781 21.0352 3.82582C21.0352 4.24382 21.1415 4.4868 21.4581 4.69477C22.6186 4.97275 22.9352 5.39074 22.9352 6.50472V21.7071C22.9352 22.8911 22.5831 23.3091 21.4227 23.69C21.1769 23.8651 21.0706 24.143 21.0352 24.456C21.0352 25.082 21.3519 25.5 22.0915 25.5H27.9686Z" fill="#084A83"/>
<path d="M46.9432 23.69C45.7453 23.3091 45.4287 22.8911 45.4287 21.6721V10.6106C45.4287 9.87961 45.0412 9.53162 44.3016 9.53162C44.1266 9.53162 44.0203 9.56662 43.8453 9.56662L40.0432 10.7135C39.6557 10.8186 39.3391 11.1315 39.3391 11.6525C39.3391 12.0355 39.4099 12.2805 39.762 12.5235C40.887 12.8015 41.2037 13.2195 41.2037 14.3314V19.2383C41.2037 22.0901 39.9016 23.7251 37.8245 23.7251C35.9953 23.7251 35.3266 22.7511 35.3266 21.1862V10.6106C35.3266 9.87961 34.9391 9.53162 34.1995 9.53162C34.0599 9.53162 33.9182 9.56662 33.7432 9.60163L29.9412 10.7135C29.5537 10.8186 29.237 11.1315 29.237 11.6525C29.237 12.0355 29.3078 12.2805 29.6599 12.5235C30.7849 12.8015 31.1016 13.2545 31.1016 14.3314V20.5952C31.1016 24.073 32.862 25.813 36.3474 25.813C38.5641 25.813 40.2182 24.979 41.2037 23.4821C41.3099 24.6311 42.2599 25.5 43.4224 25.5H46.2391C46.9766 25.5 47.2932 25.082 47.2932 24.456C47.2932 24.1431 47.1537 23.8651 46.9432 23.69Z" fill="#084A83"/>
<path d="M62.6766 17.6383C62.6766 12.3835 60.7058 9.49661 55.4245 9.49661C50.462 9.49661 48.1037 12.3835 48.1037 17.6383C48.1037 22.8911 50.9558 25.778 56.3412 25.778C59.1912 25.778 60.8808 24.909 61.9724 23.3091C62.3599 22.7161 62.2183 22.1601 61.6204 21.8121C61.1287 21.5342 60.5995 21.5692 60.1079 22.1601C59.3329 23.0641 58.3474 23.7251 56.7287 23.7251C54.1224 23.7251 52.6099 22.1951 52.3287 18.6802H61.762C62.3954 18.6802 62.6766 18.2993 62.6766 17.6383ZM55.637 11.5845C57.7495 11.5845 58.8037 13.0795 58.9808 16.6294H52.2933C52.4329 13.1495 53.4183 11.5845 55.637 11.5845Z" fill="#084A83"/>
<path d="M89.9564 25.5C90.5897 25.5 91.048 24.944 91.048 24.386V21.1512C91.048 20.3852 90.6251 20.1072 89.9918 20.1072C89.7105 20.1072 89.3939 20.2472 89.2168 20.5252C88.4084 22.4731 87.1751 23.2391 84.4647 23.2391H78.6918V15.6884H82.3876C84.2897 15.6884 84.9939 16.1414 85.5564 17.7763C85.7668 18.0193 86.0147 18.1243 86.3668 18.1243C87.0001 18.1243 87.3876 17.7413 87.3876 17.1153V11.9655C87.3876 11.3395 87.0001 10.9565 86.3668 10.9565C86.0147 10.9565 85.7668 11.0615 85.5564 11.3045C84.9939 12.9065 84.2897 13.3924 82.3876 13.3924H78.6918V5.84376H84.4647C87.1751 5.84376 88.4084 6.60769 89.2168 8.59267C89.3939 8.83564 89.7105 8.9736 89.9918 8.9736C90.6251 8.9736 91.048 8.69562 91.048 7.93169V4.65977C91.048 4.13881 90.5897 3.58286 89.9564 3.58286H73.4834C72.7439 3.58286 72.4272 3.9988 72.4272 4.62476C72.4272 4.93775 72.5334 5.21779 72.8147 5.39075C73.9397 5.77375 74.2918 6.19175 74.2918 7.26866V21.8471C74.2918 22.8911 73.9397 23.3421 72.8147 23.6901C72.5334 23.8651 72.4272 24.1431 72.4272 24.456C72.4272 25.082 72.7439 25.5 73.4834 25.5H89.9564Z" fill="#084A83"/>
<path d="M108.26 23.69C107.099 23.3091 106.747 22.8911 106.747 21.6392V14.6444C106.747 11.4095 104.318 9.49661 99.7764 9.49661C95.7639 9.49661 93.4056 11.4095 93.4056 14.0534C93.4056 15.0274 94.1806 15.5504 95.3077 15.5504C96.5035 15.5504 97.1368 15.0274 97.1368 14.0534C97.1368 12.8015 97.9472 11.6175 99.7764 11.6175C101.643 11.6175 102.558 12.6965 102.558 13.9505C102.558 15.3404 101.853 16.2114 100.445 16.4543L97.0326 17.0103C93.7222 17.5683 92.4556 19.3083 92.4556 21.7771C92.4556 24.2831 94.1451 25.778 97.1368 25.778C99.7431 25.778 101.537 24.979 102.558 23.4821C102.628 24.5961 103.614 25.5 104.776 25.5H107.591C108.331 25.5 108.647 25.082 108.647 24.456C108.647 24.1431 108.508 23.8651 108.26 23.69ZM99.1076 23.7251C97.3826 23.7251 96.6451 22.7161 96.6451 21.4992C96.6451 20.1072 97.3493 19.0632 99.0035 18.7853L101.326 18.4023C101.783 18.3322 102.206 18.1943 102.558 18.0193V19.2383C102.558 22.1601 101.326 23.7251 99.1076 23.7251Z" fill="#084A83"/>
<path d="M116.286 25.778C119.63 25.778 121.145 24.038 121.145 21.3941C121.145 20.8382 120.826 20.4902 120.018 20.4902C119.278 20.4902 118.926 20.8382 118.926 21.3941C118.926 22.6811 118.399 23.6221 116.955 23.6221C115.476 23.6221 114.913 22.5781 114.913 21.1861V11.8975H117.765C118.503 11.8975 118.82 11.5845 118.82 10.8535C118.82 10.1226 118.399 9.80957 117.765 9.80957H114.913V7.47866C114.913 6.99065 114.597 6.53971 114.068 6.43469C113.576 6.29467 113.082 6.53971 112.836 6.95565C112.238 9.04359 111.463 9.80957 110.126 9.80957H109.528C108.895 9.80957 108.472 10.1226 108.472 10.8535C108.472 11.5845 108.788 11.8975 109.528 11.8975H110.724V20.2822C110.724 23.9351 112.661 25.778 116.286 25.778Z" fill="#084A83"/>
<path d="M125.262 6.71269C126.881 6.71269 127.797 5.80874 127.797 4.20882C127.797 2.67684 126.881 1.70288 125.262 1.70288C123.643 1.70288 122.728 2.60683 122.728 4.20882C122.728 5.80874 123.643 6.71269 125.262 6.71269ZM128.218 25.5C128.922 25.5 129.274 25.082 129.274 24.456C129.274 24.143 129.135 23.8651 128.853 23.69C127.691 23.3091 127.374 22.8911 127.374 21.7071V10.6106C127.374 9.8796 127.022 9.53161 126.247 9.53161C126.108 9.53161 125.966 9.56662 125.824 9.60162L121.989 10.7135C121.601 10.8536 121.285 11.1315 121.285 11.6525C121.285 12.0705 121.391 12.3135 121.708 12.5235C122.868 12.8015 123.185 13.2195 123.185 14.3314V21.7071C123.185 22.8911 122.833 23.3091 121.672 23.69C121.424 23.8651 121.285 24.143 121.285 24.456C121.285 25.082 121.601 25.5 122.306 25.5H128.218Z" fill="#084A83"/>
<path d="M147.474 23.69C146.276 23.3091 145.924 22.8911 145.924 21.6392L145.959 14.7494C145.959 11.2716 144.199 9.53162 140.716 9.53162C138.532 9.53162 136.843 10.3656 135.857 11.8625V10.6106C135.857 9.87961 135.505 9.53162 134.73 9.53162C134.591 9.53162 134.449 9.56662 134.274 9.60163L130.472 10.7135C130.084 10.8536 129.768 11.1315 129.768 11.6525C129.768 12.0355 129.839 12.3135 130.191 12.5235C131.316 12.8015 131.632 13.2195 131.632 14.3314V21.7071C131.632 22.8911 131.316 23.3091 130.155 23.69C129.874 23.8651 129.768 24.1431 129.768 24.456C129.768 25.082 130.084 25.5 130.824 25.5H136.666C137.405 25.5 137.722 25.082 137.722 24.456C137.722 24.1431 137.582 23.8651 137.37 23.69C136.174 23.3091 135.857 22.8911 135.822 21.7071L135.857 16.1063C135.857 13.2545 137.195 11.6175 139.237 11.6175C141.066 11.6175 141.737 12.5935 141.737 14.1584V24.386C141.737 25.012 142.228 25.5 142.862 25.5H146.77C147.507 25.5 147.826 25.082 147.826 24.456C147.826 24.1431 147.684 23.8651 147.474 23.69Z" fill="#084A83"/>
<path d="M153.351 23.2041C151.487 23.2041 150.818 22.1951 150.818 21.0461C150.818 20.4552 151.028 20.0022 151.31 19.6892C152.366 20.4902 153.845 20.9082 155.745 20.9082C160.003 20.9082 162.151 18.7852 162.151 15.2024C162.151 12.6965 161.166 10.9565 159.16 10.0876C159.687 9.28657 160.639 8.76562 161.976 8.76562C163.066 8.76562 163.701 8.27761 163.701 7.16569C163.701 6.05172 162.962 5.56577 161.976 5.56577C159.758 5.56577 158.28 7.16569 157.787 9.66957C157.189 9.56661 156.485 9.4966 155.745 9.4966C151.522 9.4966 149.339 11.5495 149.339 15.2024C149.339 16.5593 149.655 17.6713 150.253 18.5773C149.48 19.2382 148.599 20.4552 148.599 22.4381C148.599 25.187 150.57 27.2399 154.126 27.2399H156.766C158.597 27.2399 159.547 27.7959 159.547 29.2929C159.547 30.7528 158.526 31.5538 156.378 31.5538C153.633 31.5538 151.978 30.5448 150.395 29.4308C149.585 28.8399 148.635 28.8749 148.072 29.7438C147.543 30.6148 147.895 31.2408 148.88 31.8668C150.395 32.8757 152.718 33.6417 155.78 33.6417C161.589 33.6417 163.735 31.4138 163.735 28.0389C163.735 24.596 160.991 23.2041 157.751 23.2041H153.351ZM155.745 11.5845C157.399 11.5845 158.21 12.6264 158.21 15.2024C158.21 17.7413 157.399 18.8553 155.745 18.8553C154.126 18.8553 153.316 17.7413 153.316 15.2024C153.316 12.6264 154.126 11.5845 155.745 11.5845Z" fill="#084A83"/>
<mask id="mask0_10_60" style="mask-type:luminance" maskUnits="userSpaceOnUse" x="121" y="0" width="10" height="9">
<path d="M121.333 0H130.933V8.96124H121.333V0Z" fill="white"/>
</mask>
<g mask="url(#mask0_10_60)">
<mask id="mask1_10_60" style="mask-type:luminance" maskUnits="userSpaceOnUse" x="121" y="-1" width="10" height="10">
<path d="M121.721 -0.00411987L130.919 0.185318L130.738 8.88093L121.54 8.69355L121.721 -0.00411987Z" fill="white"/>
</mask>
<g mask="url(#mask1_10_60)">
<mask id="mask2_10_60" style="mask-type:luminance" maskUnits="userSpaceOnUse" x="120" y="-1" width="11" height="11">
<path d="M121.035 -0.0164795L130.633 0.179136L130.435 9.66545L120.838 9.46983L121.035 -0.0164795Z" fill="white"/>
</mask>
<g mask="url(#mask2_10_60)">
<path d="M130.479 0.251189C130.415 0.245012 130.348 0.247071 130.283 0.240894C129.798 0.199712 129.315 0.152352 128.827 0.166766C128.544 0.172943 128.26 0.172943 127.977 0.187357C127.813 0.193534 127.644 0.210007 127.481 0.242953C127.033 0.333553 126.59 0.442686 126.158 0.599179C125.677 0.774203 125.217 0.986291 124.79 1.26015C124.275 1.58755 123.8 1.96437 123.413 2.44208C123.102 2.82302 122.798 3.20601 122.567 3.64048C122.477 3.81345 122.406 3.99465 122.329 4.17173C122.179 4.5156 122.048 4.86565 121.952 5.22805C121.86 5.57604 121.771 5.92403 121.719 6.28026C121.667 6.64266 121.6 7.00301 121.565 7.36747C121.544 7.59397 121.533 7.82459 121.577 8.05521C121.629 8.32495 121.625 8.32701 121.446 8.53704C121.435 8.5494 121.427 8.55969 121.417 8.56999C121.177 8.82738 121.029 9.14036 120.854 9.43893C120.842 9.45952 120.856 9.49453 120.86 9.57483C121.131 9.14654 121.354 8.75119 121.713 8.40938C121.792 8.5391 121.913 8.56587 122.033 8.60087C122.238 8.65853 122.44 8.69971 122.654 8.68118C122.725 8.675 122.8 8.69147 122.871 8.69353C123.271 8.70795 123.667 8.74913 124.069 8.72648C124.377 8.71001 124.671 8.6297 124.973 8.59058C125.35 8.5391 125.704 8.40938 126.056 8.27348C126.231 8.20553 126.398 8.11287 126.558 8.01609C126.74 7.90901 126.91 7.78547 127.083 7.67016C127.531 7.36953 127.94 7.02772 128.296 6.62413C128.496 6.39557 128.69 6.16495 128.842 5.89932C128.963 5.68724 129.083 5.47309 129.2 5.25894C129.506 4.70092 129.752 4.12025 129.938 3.51282C130.094 2.99598 130.238 2.47709 130.385 1.95819C130.467 1.66786 130.55 1.37752 130.623 1.08513C130.669 0.910104 130.704 0.735079 130.729 0.555937C130.756 0.370617 130.665 0.269722 130.479 0.251189Z" fill="#86B649"/>
</g>
</g>
</g>
</g>
<defs>
<clipPath id="clip0_10_60">
<rect width="164" height="34" fill="white"/>
</clipPath>
</defs>
</svg>
