<svg xmlns="http://www.w3.org/2000/svg" xmlns:xlink="http://www.w3.org/1999/xlink" width="500" zoomAndPan="magnify" viewBox="0 0 375 374.999991" height="500" preserveAspectRatio="xMidYMid meet" version="1.0"><defs><g/><clipPath id="38f87f5e12"><path d="M 262 156 L 280 156 L 280 173 L 262 173 Z M 262 156 " clip-rule="nonzero"/></clipPath><clipPath id="5a49776dfe"><path d="M 262.726562 155.992188 L 279.972656 156.351562 L 279.632812 172.847656 L 262.386719 172.492188 Z M 262.726562 155.992188 " clip-rule="nonzero"/></clipPath><clipPath id="3ed231ae97"><path d="M 261.441406 155.96875 L 279.4375 156.339844 L 279.066406 174.335938 L 261.070312 173.964844 Z M 261.441406 155.96875 " clip-rule="nonzero"/></clipPath></defs><g fill="#084a83" fill-opacity="1"><g transform="translate(32.624801, 204.374987)"><g><path d="M 31.8125 -21.449219 C 35.441406 -23.230469 36.894531 -26.464844 36.894531 -31.085938 C 36.894531 -38.28125 32.734375 -41.578125 21.253906 -41.578125 L 3.960938 -41.578125 C 2.574219 -41.578125 1.980469 -40.789062 1.980469 -39.601562 C 1.980469 -39.007812 2.179688 -38.542969 2.707031 -38.148438 C 4.816406 -37.421875 5.476562 -36.628906 5.476562 -34.648438 L 5.476562 -6.996094 C 5.476562 -4.949219 4.816406 -4.15625 2.707031 -3.433594 C 2.179688 -3.101562 1.980469 -2.574219 1.980469 -1.980469 C 1.980469 -0.792969 2.574219 0 3.960938 0 L 23.890625 0 C 35.046875 0 39.863281 -3.367188 39.863281 -11.417969 C 39.863281 -16.894531 37.09375 -20.195312 31.8125 -21.449219 Z M 20.128906 -37.289062 C 26.136719 -37.289062 28.644531 -35.179688 28.644531 -30.160156 C 28.644531 -25.144531 26.003906 -22.96875 20.128906 -22.96875 L 13.726562 -22.96875 L 13.726562 -37.289062 Z M 13.726562 -4.289062 L 13.726562 -18.679688 L 23.363281 -18.679688 C 28.84375 -18.679688 31.613281 -16.105469 31.613281 -11.417969 C 31.613281 -6.535156 29.039062 -4.289062 23.363281 -4.289062 Z M 13.726562 -4.289062 "/></g></g></g><g fill="#084a83" fill-opacity="1"><g transform="translate(72.62074, 204.374987)"><g><path d="M 14.320312 0 C 15.640625 0 16.300781 -0.792969 16.300781 -1.980469 C 16.300781 -2.574219 16.039062 -3.101562 15.574219 -3.433594 C 13.398438 -4.15625 12.738281 -4.949219 12.738281 -7.195312 L 12.738281 -43.097656 C 12.738281 -44.484375 12.078125 -45.144531 10.691406 -45.144531 C 10.429688 -45.144531 10.097656 -45.078125 9.835938 -45.011719 L 2.640625 -42.898438 C 1.914062 -42.636719 1.320312 -42.042969 1.320312 -41.117188 C 1.320312 -40.324219 1.519531 -39.863281 2.113281 -39.46875 C 4.289062 -38.941406 4.882812 -38.148438 4.882812 -36.035156 L 4.882812 -7.195312 C 4.882812 -4.949219 4.222656 -4.15625 2.046875 -3.433594 C 1.585938 -3.101562 1.386719 -2.574219 1.320312 -1.980469 C 1.320312 -0.792969 1.914062 0 3.300781 0 Z M 14.320312 0 "/></g></g></g><g fill="#084a83" fill-opacity="1"><g transform="translate(87.932668, 204.374987)"><g><path d="M 34.585938 -3.433594 C 32.339844 -4.15625 31.746094 -4.949219 31.746094 -7.261719 L 31.746094 -28.246094 C 31.746094 -29.632812 31.019531 -30.292969 29.632812 -30.292969 C 29.304688 -30.292969 29.105469 -30.226562 28.777344 -30.226562 L 21.648438 -28.050781 C 20.921875 -27.851562 20.328125 -27.257812 20.328125 -26.269531 C 20.328125 -25.542969 20.460938 -25.078125 21.121094 -24.617188 C 23.230469 -24.089844 23.824219 -23.296875 23.824219 -21.1875 L 23.824219 -11.878906 C 23.824219 -6.46875 21.382812 -3.367188 17.488281 -3.367188 C 14.058594 -3.367188 12.804688 -5.214844 12.804688 -8.183594 L 12.804688 -28.246094 C 12.804688 -29.632812 12.078125 -30.292969 10.691406 -30.292969 C 10.429688 -30.292969 10.164062 -30.226562 9.835938 -30.160156 L 2.707031 -28.050781 C 1.980469 -27.851562 1.386719 -27.257812 1.386719 -26.269531 C 1.386719 -25.542969 1.519531 -25.078125 2.179688 -24.617188 C 4.289062 -24.089844 4.882812 -23.230469 4.882812 -21.1875 L 4.882812 -9.304688 C 4.882812 -2.707031 8.183594 0.59375 14.71875 0.59375 C 18.875 0.59375 21.976562 -0.988281 23.824219 -3.828125 C 24.023438 -1.648438 25.804688 0 27.984375 0 L 33.265625 0 C 34.648438 0 35.242188 -0.792969 35.242188 -1.980469 C 35.242188 -2.574219 34.980469 -3.101562 34.585938 -3.433594 Z M 34.585938 -3.433594 "/></g></g></g><g fill="#084a83" fill-opacity="1"><g transform="translate(122.186601, 204.374987)"><g><path d="M 29.832031 -14.914062 C 29.832031 -24.882812 26.136719 -30.359375 16.234375 -30.359375 C 6.929688 -30.359375 2.507812 -24.882812 2.507812 -14.914062 C 2.507812 -4.949219 7.855469 0.527344 17.953125 0.527344 C 23.296875 0.527344 26.464844 -1.121094 28.511719 -4.15625 C 29.238281 -5.28125 28.972656 -6.335938 27.851562 -6.996094 C 26.929688 -7.523438 25.9375 -7.457031 25.015625 -6.335938 C 23.5625 -4.621094 21.714844 -3.367188 18.679688 -3.367188 C 13.792969 -3.367188 10.957031 -6.269531 10.429688 -12.9375 L 28.117188 -12.9375 C 29.304688 -12.9375 29.832031 -13.660156 29.832031 -14.914062 Z M 16.632812 -26.398438 C 20.59375 -26.398438 22.570312 -23.5625 22.902344 -16.828125 L 10.363281 -16.828125 C 10.625 -23.429688 12.472656 -26.398438 16.632812 -26.398438 Z M 16.632812 -26.398438 "/></g></g></g><g fill="#084a83" fill-opacity="1"><g transform="translate(152.150539, 204.374987)"><g/></g></g><g fill="#084a83" fill-opacity="1"><g transform="translate(168.320467, 204.374987)"><g><path d="M 34.847656 0 C 36.035156 0 36.894531 -1.054688 36.894531 -2.113281 L 36.894531 -8.25 C 36.894531 -9.703125 36.101562 -10.230469 34.914062 -10.230469 C 34.386719 -10.230469 33.792969 -9.964844 33.460938 -9.4375 C 31.945312 -5.742188 29.632812 -4.289062 24.550781 -4.289062 L 13.726562 -4.289062 L 13.726562 -18.613281 L 20.65625 -18.613281 C 24.222656 -18.613281 25.542969 -17.753906 26.597656 -14.652344 C 26.992188 -14.191406 27.457031 -13.992188 28.117188 -13.992188 C 29.304688 -13.992188 30.03125 -14.71875 30.03125 -15.90625 L 30.03125 -25.675781 C 30.03125 -26.863281 29.304688 -27.589844 28.117188 -27.589844 C 27.457031 -27.589844 26.992188 -27.390625 26.597656 -26.929688 C 25.542969 -23.890625 24.222656 -22.96875 20.65625 -22.96875 L 13.726562 -22.96875 L 13.726562 -37.289062 L 24.550781 -37.289062 C 29.632812 -37.289062 31.945312 -35.839844 33.460938 -32.074219 C 33.792969 -31.613281 34.386719 -31.351562 34.914062 -31.351562 C 36.101562 -31.351562 36.894531 -31.878906 36.894531 -33.328125 L 36.894531 -39.535156 C 36.894531 -40.523438 36.035156 -41.578125 34.847656 -41.578125 L 3.960938 -41.578125 C 2.574219 -41.578125 1.980469 -40.789062 1.980469 -39.601562 C 1.980469 -39.007812 2.179688 -38.476562 2.707031 -38.148438 C 4.816406 -37.421875 5.476562 -36.628906 5.476562 -34.585938 L 5.476562 -6.929688 C 5.476562 -4.949219 4.816406 -4.09375 2.707031 -3.433594 C 2.179688 -3.101562 1.980469 -2.574219 1.980469 -1.980469 C 1.980469 -0.792969 2.574219 0 3.960938 0 Z M 34.847656 0 "/></g></g></g><g fill="#084a83" fill-opacity="1"><g transform="translate(205.346416, 204.374987)"><g><path d="M 32.140625 -3.433594 C 29.964844 -4.15625 29.304688 -4.949219 29.304688 -7.324219 L 29.304688 -20.59375 C 29.304688 -26.730469 24.75 -30.359375 16.234375 -30.359375 C 8.710938 -30.359375 4.289062 -26.730469 4.289062 -21.714844 C 4.289062 -19.867188 5.742188 -18.875 7.855469 -18.875 C 10.097656 -18.875 11.285156 -19.867188 11.285156 -21.714844 C 11.285156 -24.089844 12.804688 -26.335938 16.234375 -26.335938 C 19.734375 -26.335938 21.449219 -24.289062 21.449219 -21.910156 C 21.449219 -19.273438 20.128906 -17.621094 17.488281 -17.160156 L 11.089844 -16.105469 C 4.882812 -15.046875 2.507812 -11.746094 2.507812 -7.0625 C 2.507812 -2.308594 5.675781 0.527344 11.285156 0.527344 C 16.171875 0.527344 19.535156 -0.988281 21.449219 -3.828125 C 21.582031 -1.714844 23.429688 0 25.609375 0 L 30.886719 0 C 32.273438 0 32.867188 -0.792969 32.867188 -1.980469 C 32.867188 -2.574219 32.605469 -3.101562 32.140625 -3.433594 Z M 14.980469 -3.367188 C 11.746094 -3.367188 10.363281 -5.28125 10.363281 -7.589844 C 10.363281 -10.230469 11.683594 -12.210938 14.785156 -12.738281 L 19.140625 -13.464844 C 19.996094 -13.597656 20.789062 -13.859375 21.449219 -14.191406 L 21.449219 -11.878906 C 21.449219 -6.335938 19.140625 -3.367188 14.980469 -3.367188 Z M 14.980469 -3.367188 "/></g></g></g><g fill="#084a83" fill-opacity="1"><g transform="translate(237.224343, 204.374987)"><g><path d="M 15.3125 0.527344 C 21.582031 0.527344 24.421875 -2.773438 24.421875 -7.789062 C 24.421875 -8.84375 23.824219 -9.503906 22.308594 -9.503906 C 20.921875 -9.503906 20.261719 -8.84375 20.261719 -7.789062 C 20.261719 -5.347656 19.273438 -3.5625 16.566406 -3.5625 C 13.792969 -3.5625 12.738281 -5.542969 12.738281 -8.183594 L 12.738281 -25.804688 L 18.085938 -25.804688 C 19.46875 -25.804688 20.0625 -26.398438 20.0625 -27.785156 C 20.0625 -29.171875 19.273438 -29.765625 18.085938 -29.765625 L 12.738281 -29.765625 L 12.738281 -34.1875 C 12.738281 -35.113281 12.144531 -35.96875 11.152344 -36.167969 C 10.230469 -36.433594 9.304688 -35.96875 8.84375 -35.179688 C 7.722656 -31.21875 6.269531 -29.765625 3.761719 -29.765625 L 2.640625 -29.765625 C 1.453125 -29.765625 0.660156 -29.171875 0.660156 -27.785156 C 0.660156 -26.398438 1.253906 -25.804688 2.640625 -25.804688 L 4.882812 -25.804688 L 4.882812 -9.898438 C 4.882812 -2.96875 8.515625 0.527344 15.3125 0.527344 Z M 15.3125 0.527344 "/></g></g></g><g fill="#084a83" fill-opacity="1"><g transform="translate(259.928276, 204.374987)"><g><path d="M 9.4375 -35.640625 C 12.472656 -35.640625 14.191406 -37.355469 14.191406 -40.390625 C 14.191406 -43.296875 12.472656 -45.144531 9.4375 -45.144531 C 6.402344 -45.144531 4.6875 -43.429688 4.6875 -40.390625 C 4.6875 -37.355469 6.402344 -35.640625 9.4375 -35.640625 Z M 14.980469 0 C 16.300781 0 16.960938 -0.792969 16.960938 -1.980469 C 16.960938 -2.574219 16.699219 -3.101562 16.171875 -3.433594 C 13.992188 -4.15625 13.398438 -4.949219 13.398438 -7.195312 L 13.398438 -28.246094 C 13.398438 -29.632812 12.738281 -30.292969 11.285156 -30.292969 C 11.023438 -30.292969 10.757812 -30.226562 10.492188 -30.160156 L 3.300781 -28.050781 C 2.574219 -27.785156 1.980469 -27.257812 1.980469 -26.269531 C 1.980469 -25.476562 2.179688 -25.015625 2.773438 -24.617188 C 4.949219 -24.089844 5.542969 -23.296875 5.542969 -21.1875 L 5.542969 -7.195312 C 5.542969 -4.949219 4.882812 -4.15625 2.707031 -3.433594 C 2.242188 -3.101562 1.980469 -2.574219 1.980469 -1.980469 C 1.980469 -0.792969 2.574219 0 3.894531 0 Z M 14.980469 0 "/></g></g></g><g fill="#084a83" fill-opacity="1"><g transform="translate(275.834212, 204.374987)"><g><path d="M 35.179688 -3.433594 C 32.933594 -4.15625 32.273438 -4.949219 32.273438 -7.324219 L 32.339844 -20.394531 C 32.339844 -26.992188 29.039062 -30.292969 22.507812 -30.292969 C 18.414062 -30.292969 15.246094 -28.710938 13.398438 -25.871094 L 13.398438 -28.246094 C 13.398438 -29.632812 12.738281 -30.292969 11.285156 -30.292969 C 11.023438 -30.292969 10.757812 -30.226562 10.429688 -30.160156 L 3.300781 -28.050781 C 2.574219 -27.785156 1.980469 -27.257812 1.980469 -26.269531 C 1.980469 -25.542969 2.113281 -25.015625 2.773438 -24.617188 C 4.882812 -24.089844 5.476562 -23.296875 5.476562 -21.1875 L 5.476562 -7.195312 C 5.476562 -4.949219 4.882812 -4.15625 2.707031 -3.433594 C 2.179688 -3.101562 1.980469 -2.574219 1.980469 -1.980469 C 1.980469 -0.792969 2.574219 0 3.960938 0 L 14.914062 0 C 16.300781 0 16.894531 -0.792969 16.894531 -1.980469 C 16.894531 -2.574219 16.632812 -3.101562 16.234375 -3.433594 C 13.992188 -4.15625 13.398438 -4.949219 13.332031 -7.195312 L 13.398438 -17.820312 C 13.398438 -23.230469 15.90625 -26.335938 19.734375 -26.335938 C 23.164062 -26.335938 24.421875 -24.484375 24.421875 -21.515625 L 24.421875 -2.113281 C 24.421875 -0.925781 25.34375 0 26.53125 0 L 33.859375 0 C 35.242188 0 35.839844 -0.792969 35.839844 -1.980469 C 35.839844 -2.574219 35.574219 -3.101562 35.179688 -3.433594 Z M 35.179688 -3.433594 "/></g></g></g><g fill="#084a83" fill-opacity="1"><g transform="translate(310.682156, 204.374987)"><g><path d="M 11.351562 -4.355469 C 7.855469 -4.355469 6.601562 -6.269531 6.601562 -8.449219 C 6.601562 -9.570312 6.996094 -10.429688 7.523438 -11.023438 C 9.503906 -9.503906 12.277344 -8.710938 15.839844 -8.710938 C 23.824219 -8.710938 27.851562 -12.738281 27.851562 -19.535156 C 27.851562 -24.289062 26.003906 -27.589844 22.242188 -29.238281 C 23.230469 -30.757812 25.015625 -31.746094 27.523438 -31.746094 C 29.566406 -31.746094 30.757812 -32.671875 30.757812 -34.78125 C 30.757812 -36.894531 29.371094 -37.816406 27.523438 -37.816406 C 23.363281 -37.816406 20.59375 -34.78125 19.667969 -30.03125 C 18.546875 -30.226562 17.226562 -30.359375 15.839844 -30.359375 C 7.921875 -30.359375 3.828125 -26.464844 3.828125 -19.535156 C 3.828125 -16.960938 4.421875 -14.851562 5.542969 -13.132812 C 4.09375 -11.878906 2.441406 -9.570312 2.441406 -5.808594 C 2.441406 -0.59375 6.136719 3.300781 12.804688 3.300781 L 17.753906 3.300781 C 21.1875 3.300781 22.96875 4.355469 22.96875 7.195312 C 22.96875 9.964844 21.054688 11.484375 17.027344 11.484375 C 11.878906 11.484375 8.777344 9.570312 5.808594 7.457031 C 4.289062 6.335938 2.507812 6.402344 1.453125 8.050781 C 0.460938 9.703125 1.121094 10.890625 2.96875 12.078125 C 5.808594 13.992188 10.164062 15.445312 15.90625 15.445312 C 26.796875 15.445312 30.820312 11.21875 30.820312 4.816406 C 30.820312 -1.714844 25.675781 -4.355469 19.601562 -4.355469 Z M 15.839844 -26.398438 C 18.941406 -26.398438 20.460938 -24.421875 20.460938 -19.535156 C 20.460938 -14.71875 18.941406 -12.605469 15.839844 -12.605469 C 12.804688 -12.605469 11.285156 -14.71875 11.285156 -19.535156 C 11.285156 -24.421875 12.804688 -26.398438 15.839844 -26.398438 Z M 15.839844 -26.398438 "/></g></g></g><g clip-path="url(#38f87f5e12)"><g clip-path="url(#5a49776dfe)"><g clip-path="url(#3ed231ae97)"><path fill="#86b649" d="M 279.148438 156.476562 C 279.027344 156.464844 278.902344 156.46875 278.78125 156.457031 C 277.871094 156.378906 276.964844 156.289062 276.050781 156.316406 C 275.519531 156.328125 274.988281 156.328125 274.457031 156.355469 C 274.148438 156.367188 273.832031 156.398438 273.527344 156.460938 C 272.6875 156.632812 271.855469 156.839844 271.046875 157.136719 C 270.144531 157.46875 269.28125 157.871094 268.480469 158.390625 C 267.515625 159.011719 266.625 159.726562 265.898438 160.632812 C 265.316406 161.355469 264.746094 162.082031 264.3125 162.90625 C 264.144531 163.234375 264.011719 163.578125 263.867188 163.914062 C 263.585938 164.566406 263.339844 165.230469 263.160156 165.917969 C 262.988281 166.578125 262.820312 167.238281 262.722656 167.914062 C 262.625 168.601562 262.5 169.285156 262.433594 169.976562 C 262.394531 170.40625 262.375 170.84375 262.457031 171.28125 C 262.554688 171.792969 262.546875 171.796875 262.210938 172.195312 C 262.191406 172.21875 262.175781 172.238281 262.15625 172.257812 C 261.707031 172.746094 261.429688 173.339844 261.101562 173.90625 C 261.078125 173.945312 261.105469 174.011719 261.113281 174.164062 C 261.621094 173.351562 262.039062 172.601562 262.710938 171.953125 C 262.859375 172.199219 263.085938 172.25 263.3125 172.316406 C 263.695312 172.425781 264.074219 172.503906 264.476562 172.46875 C 264.609375 172.457031 264.75 172.488281 264.882812 172.492188 C 265.632812 172.519531 266.375 172.597656 267.128906 172.554688 C 267.707031 172.523438 268.257812 172.371094 268.824219 172.296875 C 269.53125 172.199219 270.195312 171.953125 270.855469 171.695312 C 271.183594 171.566406 271.496094 171.390625 271.796875 171.207031 C 272.136719 171.003906 272.457031 170.769531 272.78125 170.550781 C 273.621094 169.980469 274.386719 169.332031 275.054688 168.566406 C 275.429688 168.132812 275.792969 167.695312 276.078125 167.191406 C 276.304688 166.789062 276.53125 166.382812 276.75 165.976562 C 277.324219 164.917969 277.785156 163.816406 278.132812 162.664062 C 278.425781 161.683594 278.695312 160.699219 278.972656 159.714844 C 279.125 159.164062 279.28125 158.613281 279.417969 158.058594 C 279.503906 157.726562 279.570312 157.394531 279.617188 157.054688 C 279.667969 156.703125 279.496094 156.511719 279.148438 156.476562 Z M 279.148438 156.476562 " fill-opacity="1" fill-rule="nonzero"/></g></g></g></svg>